<svg width="1024" height="1024" viewBox="0 0 1024 1024" fill="none" xmlns="http://www.w3.org/2000/svg">
<g filter="url(#filter0_i_201_2)">
<g filter="url(#filter1_i_201_2)">
<path d="M512 823.97C340.636 823.97 195.636 683.364 195.636 507.606C195.636 336.242 336.242 191.242 512 191.242C683.364 191.242 828.364 331.849 828.364 507.606C823.97 683.364 683.364 823.97 512 823.97ZM512 252.758C371.394 252.758 252.758 371.394 252.758 512C252.758 652.606 367 771.242 512 771.242C652.606 771.242 771.242 657 771.242 512C766.849 371.394 652.606 252.758 512 252.758Z" fill="url(#paint0_linear_201_2)"/>
<path d="M946.093 483.432C947.096 499.173 934.213 512 918.439 512C902.666 512 889.993 499.17 888.782 483.443C873.872 289.924 708.916 134.121 512 134.121C305.485 134.121 134.121 305.485 134.121 512H77C77 270.333 270.333 77 512 77C744.065 77 931.56 255.275 946.093 483.432Z" fill="url(#paint1_linear_201_2)"/>
<path d="M512 918.439C512 934.213 499.173 947.098 483.433 946.073C255.276 931.225 77 739.845 77 512H134.121C134.121 708.916 289.924 873.872 483.443 888.781C499.17 889.993 512 902.666 512 918.439Z" fill="url(#paint2_linear_201_2)"/>
<path d="M698.77 487.938C701.172 503.528 688.152 516.394 672.379 516.394C656.605 516.394 644.148 503.452 640.772 488.044C627.558 427.717 573.098 384.576 512 384.576C452.092 384.576 398.565 429.245 384.046 485.956C379.833 502.412 366.411 516.394 349.424 516.394C332.437 516.394 318.405 502.53 321.066 485.753C335.427 395.214 412.601 327.455 507.606 327.455C603.374 327.455 684.647 396.307 698.77 487.938Z" fill="url(#paint3_linear_201_2)"/>
</g>
</g>
<defs>
<filter id="filter0_i_201_2" x="0" y="0" width="1024" height="1028" filterUnits="userSpaceOnUse" color-interpolation-filters="sRGB">
<feFlood flood-opacity="0" result="BackgroundImageFix"/>
<feBlend mode="normal" in="SourceGraphic" in2="BackgroundImageFix" result="shape"/>
<feColorMatrix in="SourceAlpha" type="matrix" values="0 0 0 0 0 0 0 0 0 0 0 0 0 0 0 0 0 0 127 0" result="hardAlpha"/>
<feOffset dy="4"/>
<feGaussianBlur stdDeviation="15"/>
<feComposite in2="hardAlpha" operator="arithmetic" k2="-1" k3="1"/>
<feColorMatrix type="matrix" values="0 0 0 0 0 0 0 0 0 0 0 0 0 0 0 0 0 0 0.25 0"/>
<feBlend mode="normal" in2="shape" result="effect1_innerShadow_201_2"/>
</filter>
<filter id="filter1_i_201_2" x="0" y="0" width="1024" height="1028" filterUnits="userSpaceOnUse" color-interpolation-filters="sRGB">
<feFlood flood-opacity="0" result="BackgroundImageFix"/>
<feBlend mode="normal" in="SourceGraphic" in2="BackgroundImageFix" result="shape"/>
<feColorMatrix in="SourceAlpha" type="matrix" values="0 0 0 0 0 0 0 0 0 0 0 0 0 0 0 0 0 0 127 0" result="hardAlpha"/>
<feOffset dy="4"/>
<feGaussianBlur stdDeviation="2"/>
<feComposite in2="hardAlpha" operator="arithmetic" k2="-1" k3="1"/>
<feColorMatrix type="matrix" values="0 0 0 0 0 0 0 0 0 0 0 0 0 0 0 0 0 0 0.25 0"/>
<feBlend mode="normal" in2="shape" result="effect1_innerShadow_201_2"/>
</filter>
<linearGradient id="paint0_linear_201_2" x1="512" y1="191.242" x2="512" y2="823.97" gradientUnits="userSpaceOnUse">
<stop stop-color="#7A28FF"/>
<stop offset="1" stop-color="#5B00EF"/>
</linearGradient>
<linearGradient id="paint1_linear_201_2" x1="512" y1="77" x2="512" y2="947" gradientUnits="userSpaceOnUse">
<stop stop-color="#7A28FF"/>
<stop offset="1" stop-color="#5B00EF"/>
</linearGradient>
<linearGradient id="paint2_linear_201_2" x1="512" y1="77" x2="512" y2="947" gradientUnits="userSpaceOnUse">
<stop stop-color="#7A28FF"/>
<stop offset="1" stop-color="#5B00EF"/>
</linearGradient>
<linearGradient id="paint3_linear_201_2" x1="509.803" y1="327.455" x2="509.803" y2="516.394" gradientUnits="userSpaceOnUse">
<stop stop-color="#7A28FF"/>
<stop offset="1" stop-color="#5B00EF"/>
</linearGradient>
</defs>
</svg>
